<svg width="50" height="50" viewBox="0 0 50 50" fill="none" xmlns="http://www.w3.org/2000/svg">
<path d="M27.4375 8.33342L37.5 18.3959V41.6668H12.5V8.33342H27.4375ZM29.1666 4.16675H12.5C10.2083 4.16675 8.33331 6.04175 8.33331 8.33342V41.6668C8.33331 43.9584 10.2083 45.8334 12.5 45.8334H37.5C39.7916 45.8334 41.6666 43.9584 41.6666 41.6668V16.6667L29.1666 4.16675ZM25 29.1667C27.2916 29.1667 29.1666 27.2917 29.1666 25.0001C29.1666 22.7084 27.2916 20.8334 25 20.8334C22.7083 20.8334 20.8333 22.7084 20.8333 25.0001C20.8333 27.2917 22.7083 29.1667 25 29.1667ZM33.3333 36.3126C33.3333 34.6251 32.3333 33.1251 30.7916 32.4584C29.0208 31.6876 27.0625 31.2501 25 31.2501C22.9375 31.2501 20.9791 31.6876 19.2083 32.4584C17.6666 33.1251 16.6666 34.6251 16.6666 36.3126V37.5001H33.3333V36.3126Z" fill="#F4F3EE"/>
</svg>
