<svg width="44" height="28" viewBox="0 0 44 28" fill="none" xmlns="http://www.w3.org/2000/svg">
<path d="M1.99997 0.666671C1.77912 0.663547 1.55985 0.704349 1.3549 0.786706C1.14996 0.869062 0.96342 0.99133 0.806138 1.1464C0.648855 1.30148 0.523961 1.48627 0.438715 1.69003C0.353469 1.89379 0.30957 2.11246 0.30957 2.33334C0.30957 2.55421 0.353469 2.77289 0.438715 2.97665C0.523961 3.18041 0.648855 3.3652 0.806138 3.52027C0.96342 3.67535 1.14996 3.79761 1.3549 3.87997C1.55985 3.96233 1.77912 4.00313 1.99997 4H42C42.2208 4.00313 42.4401 3.96233 42.645 3.87997C42.85 3.79761 43.0365 3.67535 43.1938 3.52027C43.3511 3.3652 43.476 3.18041 43.5612 2.97665C43.6465 2.77289 43.6904 2.55421 43.6904 2.33334C43.6904 2.11246 43.6465 1.89379 43.5612 1.69003C43.476 1.48627 43.3511 1.30148 43.1938 1.1464C43.0365 0.99133 42.85 0.869062 42.645 0.786706C42.4401 0.704349 42.2208 0.663547 42 0.666671H1.99997ZM1.99997 12.3333C1.77912 12.3302 1.55985 12.371 1.3549 12.4534C1.14996 12.5357 0.96342 12.658 0.806138 12.8131C0.648855 12.9681 0.523961 13.1529 0.438715 13.3567C0.353469 13.5605 0.30957 13.7791 0.30957 14C0.30957 14.2209 0.353469 14.4396 0.438715 14.6433C0.523961 14.8471 0.648855 15.0319 0.806138 15.1869C0.96342 15.342 1.14996 15.4643 1.3549 15.5466C1.55985 15.629 1.77912 15.6698 1.99997 15.6667H42C42.2208 15.6698 42.4401 15.629 42.645 15.5466C42.85 15.4643 43.0365 15.342 43.1938 15.1869C43.3511 15.0319 43.476 14.8471 43.5612 14.6433C43.6465 14.4396 43.6904 14.2209 43.6904 14C43.6904 13.7791 43.6465 13.5605 43.5612 13.3567C43.476 13.1529 43.3511 12.9681 43.1938 12.8131C43.0365 12.658 42.85 12.5357 42.645 12.4534C42.4401 12.371 42.2208 12.3302 42 12.3333H1.99997ZM1.99997 24C1.77912 23.9969 1.55985 24.0377 1.3549 24.12C1.14996 24.2024 0.96342 24.3247 0.806138 24.4797C0.648855 24.6348 0.523961 24.8196 0.438715 25.0234C0.353469 25.2271 0.30957 25.4458 0.30957 25.6667C0.30957 25.8875 0.353469 26.1062 0.438715 26.31C0.523961 26.5137 0.648855 26.6985 0.806138 26.8536C0.96342 27.0087 1.14996 27.1309 1.3549 27.2133C1.55985 27.2957 1.77912 27.3365 1.99997 27.3333H42C42.2208 27.3365 42.4401 27.2957 42.645 27.2133C42.85 27.1309 43.0365 27.0087 43.1938 26.8536C43.3511 26.6985 43.476 26.5137 43.5612 26.31C43.6465 26.1062 43.6904 25.8875 43.6904 25.6667C43.6904 25.4458 43.6465 25.2271 43.5612 25.0234C43.476 24.8196 43.3511 24.6348 43.1938 24.4797C43.0365 24.3247 42.85 24.2024 42.645 24.12C42.4401 24.0377 42.2208 23.9969 42 24H1.99997Z" fill="white"/>
</svg>
