<svg width="50" height="50" viewBox="0 0 50 50" fill="none" xmlns="http://www.w3.org/2000/svg">
<path d="M6.25 10.4167V39.5833C6.25 41.875 8.10417 43.75 10.4167 43.75H22.9167V6.25H10.4167C8.10417 6.25 6.25 8.125 6.25 10.4167ZM18.75 39.5833H10.4167V10.4167H18.75V39.5833Z" fill="#F4F3EE"/>
<path d="M39.5833 6.25H27.0833V22.9167H43.75V10.4167C43.75 8.125 41.875 6.25 39.5833 6.25ZM39.5833 18.75H31.25V10.4167H39.5833V18.75Z" fill="#F4F3EE"/>
<path d="M27.0833 43.7499H39.5833C41.875 43.7499 43.75 41.8749 43.75 39.5833V27.0833H27.0833V43.7499ZM31.25 31.2499H39.5833V39.5833H31.25V31.2499Z" fill="#F4F3EE"/>
</svg>
